<?xml version="1.0" standalone="no"?>
<!DOCTYPE svg PUBLIC "-//W3C//DTD SVG 20010904//EN"
 "http://www.w3.org/TR/2001/REC-SVG-20010904/DTD/svg10.dtd">
<svg version="1.0" xmlns="http://www.w3.org/2000/svg"
 width="131.000000pt" height="131.000000pt" viewBox="0 0 131.000000 131.000000"
 preserveAspectRatio="xMidYMid meet">
<metadata>
Created by potrace 1.11, written by Peter Selinger 2001-2013
</metadata>
<g transform="translate(0.000000,131.000000) scale(0.100000,-0.100000)"
fill="#000000" stroke="none">
<path d="M719 1002 c-44 -19 -159 -25 -179 -8 -12 10 -73 14 -112 7 -3 0 -18
-21 -32 -46 -15 -25 -28 -45 -29 -45 -2 0 -3 21 -2 48 l0 47 -50 3 c-59 4
-113 -10 -142 -37 -27 -26 -60 -155 -44 -175 8 -10 9 -16 1 -21 -6 -3 -8 -10
-5 -15 3 -5 -2 -37 -10 -72 -9 -35 -18 -74 -21 -88 -3 -14 -11 -45 -18 -70 -7
-25 -9 -60 -5 -80 3 -19 7 -26 8 -15 2 16 4 14 15 -10 12 -29 13 -29 20 -8 5
16 13 21 29 17 12 -2 23 -8 25 -14 2 -5 8 -10 13 -10 4 0 6 6 3 13 -3 9 4 13
21 13 14 0 25 -4 25 -9 0 -5 -7 -6 -16 -3 -14 5 -15 4 -4 -9 11 -13 15 -12 32
8 11 12 17 17 14 11 -3 -7 5 -14 18 -16 16 -3 23 -1 20 7 -3 6 6 11 20 11 14
0 23 -3 20 -7 -7 -12 25 -19 33 -6 9 13 56 20 48 7 -3 -4 2 -11 11 -14 8 -3
12 -11 9 -16 -4 -6 -1 -9 7 -8 7 2 12 -3 10 -10 -1 -8 2 -11 7 -8 5 4 11 0 14
-6 3 -10 8 -9 22 2 11 9 16 10 11 3 -9 -17 6 -17 23 0 9 7 11 7 8 1 -4 -7 0
-15 9 -18 8 -3 12 -2 9 4 -6 10 -5 11 33 15 18 2 21 -1 16 -18 -5 -17 -4 -18
9 -6 8 8 12 18 9 23 -3 5 0 6 7 2 18 -11 40 18 47 63 4 26 12 41 21 41 8 0 11
5 8 10 -4 6 -12 7 -18 4 -7 -4 -9 -3 -4 1 4 5 16 9 26 10 13 1 17 -3 13 -14
-3 -9 -2 -13 3 -9 4 4 15 2 23 -5 13 -9 14 -9 8 1 -4 7 -1 12 9 12 8 0 18 -7
21 -15 4 -8 11 -15 16 -15 6 0 8 6 5 13 -4 10 3 12 24 9 18 -3 29 -10 30 -21
0 -12 2 -12 9 4 5 11 9 14 9 6 1 -9 11 -12 35 -9 24 3 33 0 32 -11 -1 -20 31
-22 46 -3 11 13 11 14 -2 7 -21 -13 -41 -15 -34 -3 3 5 9 7 12 4 3 -3 11 -1
18 5 10 9 15 7 20 -4 3 -9 2 -21 -2 -28 -4 -8 -3 -9 4 -5 7 4 12 15 12 24 0
15 2 15 10 2 9 -13 10 -13 10 0 0 13 1 13 10 0 8 -12 10 -12 16 3 5 14 9 15
20 6 12 -10 13 -8 7 6 -5 14 -3 17 10 12 21 -8 34 12 16 24 -9 6 -10 9 -2 9 6
0 15 -5 18 -11 5 -6 12 -4 22 8 8 10 12 13 9 7 -3 -7 1 -17 9 -24 13 -11 14
-10 10 3 -4 8 -1 18 6 23 7 4 10 3 5 -4 -3 -6 -2 -14 4 -17 6 -4 10 -3 9 2 -3
19 2 34 9 29 5 -3 9 0 9 7 1 7 5 26 11 42 11 35 11 30 -22 171 -33 136 -56
165 -138 174 -48 5 -52 7 -60 36 -4 17 -14 36 -21 42 -7 6 -65 13 -129 15 -88
3 -123 1 -149 -11z"/>
<path d="M900 436 c7 -7 13 -7 20 0 6 6 3 10 -10 10 -13 0 -16 -4 -10 -10z"/>
<path d="M130 415 c-11 -13 -10 -14 4 -9 9 3 16 10 16 15 0 13 -6 11 -20 -6z"/>
<path d="M385 419 c-4 -6 -5 -12 -2 -15 2 -3 7 2 10 11 7 17 1 20 -8 4z"/>
<path d="M573 355 c0 -8 4 -12 9 -9 4 3 8 9 8 15 0 5 -4 9 -8 9 -5 0 -9 -7 -9
-15z"/>
</g>
</svg>
